# xmcd
#
# Track frame offsets: 
#        150
#        7648
#        19728
#        30881
#        43580
#        55000
#        79521
#        93246
#        108157
#        113538
#        120235
#        132221
#        144019
#        156992
#        171915
#        183205
#        198113
#
# Disc length: 2715 seconds
#
# Revision: 1
# Processed by: cddbd v1.5.2PL0 Copyright (c) Steve Scherf et al.
# Submitted via: ExactAudioCopy v1.0b1
#
DISCID=b20a9911
DTITLE=Porter Wagoner - Porter Wagoner In Person
DYEAR=1964
DGENRE=Country
TTITLE0=Howdy Neighbor Howdy
TTITLE1=Misery Loves Company
TTITLE2=Head Over Heels In Love Without You
TTITLE3=I Didn't Mean It
TTITLE4=Foggy Mountain Top
TTITLE5=Comedy: Sweet Fern
TTITLE6=Medley: A. Haven't You Heard B. Eat, Drink and Be Merry C. A S
TTITLE6=atisfied Mind
TTITLE7=I Thought Of God
TTITLE8=Sally Goodin'
TTITLE9=Come On In (And Make Youtself At Home)
TTITLE10=My Baby's Not Here (In town Tonight)
TTITLE11=Talk Back trembling Lips
TTITLE12=Private Little World
TTITLE13=Comedy
TTITLE14=Find Out
TTITLE15=An Old Log Cabin For Sale
TTITLE16=John Henry
EXTD=
EXTT0=
EXTT1=
EXTT2=
EXTT3=
EXTT4=
EXTT5=
EXTT6=
EXTT7=
EXTT8=
EXTT9=
EXTT10=
EXTT11=
EXTT12=
EXTT13=
EXTT14=
EXTT15=
EXTT16=
PLAYORDER=
